<mxfile host="app.diagrams.net" modified="2024-04-22T23:27:10.303Z" agent="Mozilla/5.0 (Windows NT 10.0; Win64; x64) AppleWebKit/537.36 (KHTML, like Gecko) Chrome/123.0.0.0 Safari/537.36" etag="0rGTXWqp7SRH2v6OILU3" version="24.2.5" type="device">
  <diagram name="Página-1" id="fKkTMa8-ULxhk7HQkgbc">
    <mxGraphModel dx="2868" dy="1560" grid="1" gridSize="10" guides="1" tooltips="1" connect="1" arrows="1" fold="1" page="1" pageScale="1" pageWidth="827" pageHeight="1169" math="0" shadow="0">
      <root>
        <mxCell id="0" />
        <mxCell id="1" parent="0" />
        <mxCell id="yfdCeYe_rkEkQRW3FUzS-1" value="" style="rounded=0;whiteSpace=wrap;html=1;" vertex="1" parent="1">
          <mxGeometry x="130" y="60" width="1530" height="1550" as="geometry" />
        </mxCell>
        <mxCell id="yfdCeYe_rkEkQRW3FUzS-2" value="&lt;font style=&quot;font-size: 24px;&quot;&gt;Cabeçalho&lt;/font&gt;" style="rounded=0;whiteSpace=wrap;html=1;" vertex="1" parent="1">
          <mxGeometry x="180" y="110" width="1340" height="60" as="geometry" />
        </mxCell>
        <mxCell id="yfdCeYe_rkEkQRW3FUzS-3" value="&lt;font style=&quot;font-size: 24px;&quot;&gt;Foto&lt;/font&gt;" style="ellipse;whiteSpace=wrap;html=1;aspect=fixed;" vertex="1" parent="1">
          <mxGeometry x="1050" y="290" width="160" height="160" as="geometry" />
        </mxCell>
        <mxCell id="yfdCeYe_rkEkQRW3FUzS-4" value="&lt;font style=&quot;font-size: 24px;&quot;&gt;Apresentação&lt;/font&gt;" style="rounded=0;whiteSpace=wrap;html=1;" vertex="1" parent="1">
          <mxGeometry x="500" y="300" width="380" height="140" as="geometry" />
        </mxCell>
        <mxCell id="yfdCeYe_rkEkQRW3FUzS-5" value="&lt;font style=&quot;font-size: 24px;&quot;&gt;Foto número 2&lt;/font&gt;" style="rounded=0;whiteSpace=wrap;html=1;" vertex="1" parent="1">
          <mxGeometry x="260" y="570" width="220" height="310" as="geometry" />
        </mxCell>
        <mxCell id="yfdCeYe_rkEkQRW3FUzS-6" value="&lt;font style=&quot;font-size: 36px;&quot;&gt;Sobre mim&lt;/font&gt;" style="rounded=0;whiteSpace=wrap;html=1;" vertex="1" parent="1">
          <mxGeometry x="630" y="570" width="860" height="240" as="geometry" />
        </mxCell>
        <mxCell id="yfdCeYe_rkEkQRW3FUzS-7" value="&lt;font style=&quot;font-size: 24px;&quot;&gt;Competências técnicas&lt;/font&gt;&lt;div&gt;&lt;font style=&quot;font-size: 24px;&quot;&gt;competências morais&lt;/font&gt;&lt;/div&gt;" style="rounded=0;whiteSpace=wrap;html=1;" vertex="1" parent="1">
          <mxGeometry x="290" y="1030" width="450" height="270" as="geometry" />
        </mxCell>
        <mxCell id="yfdCeYe_rkEkQRW3FUzS-10" value="&lt;font style=&quot;font-size: 24px;&quot;&gt;Idioma e&amp;nbsp;&lt;/font&gt;&lt;div&gt;&lt;font style=&quot;font-size: 24px;&quot;&gt;Formação acadêmica&lt;/font&gt;&lt;/div&gt;" style="rounded=0;whiteSpace=wrap;html=1;" vertex="1" parent="1">
          <mxGeometry x="990" y="1030" width="480" height="270" as="geometry" />
        </mxCell>
        <mxCell id="yfdCeYe_rkEkQRW3FUzS-11" value="&lt;font style=&quot;font-size: 36px;&quot;&gt;Rodapé&lt;/font&gt;" style="rounded=0;whiteSpace=wrap;html=1;" vertex="1" parent="1">
          <mxGeometry x="200" y="1460" width="1370" height="110" as="geometry" />
        </mxCell>
      </root>
    </mxGraphModel>
  </diagram>
</mxfile>
